<?xml version="1.0" encoding="utf-8"?>
<!-- Generator: Adobe Illustrator 25.2.1, SVG Export Plug-In . SVG Version: 6.00 Build 0)  -->
<svg version="1.1" id="Capa_1" xmlns="http://www.w3.org/2000/svg" xmlns:xlink="http://www.w3.org/1999/xlink" x="0px" y="0px"
	 viewBox="0 0 512 512" style="enable-background:new 0 0 512 512;" xml:space="preserve">
<style type="text/css">
	.st0{fill:#5D5FEF;}
</style>
<g>
	<path class="st0" d="M256,319.8c-35.3,0-64,28.7-64,64v128h128v-128C320,348.5,291.3,319.8,256,319.8z"/>
	<g>
		<path class="st0" d="M362.7,383.8v128H448c35.3,0,64-28.7,64-64V253.3c0-11.1-4.3-21.7-12-29.7l-181.3-196
			c-32-34.6-86-36.7-120.6-4.7c-1.6,1.5-3.2,3.1-4.7,4.7l-181,195.9C4.5,231.5,0,242.3,0,253.6v194.3c0,35.3,28.7,64,64,64h85.3
			v-128c0.4-58.2,47.4-105.7,104.1-107C312,275.4,362.2,323.7,362.7,383.8z"/>
		<path class="st0" d="M256,319.8c-35.3,0-64,28.7-64,64v128h128v-128C320,348.5,291.3,319.8,256,319.8z"/>
	</g>
</g>
</svg>
