<?xml version="1.0" encoding="utf-8"?>
<!-- Generator: Adobe Illustrator 25.2.1, SVG Export Plug-In . SVG Version: 6.00 Build 0)  -->
<svg version="1.1" id="Layer_1" xmlns="http://www.w3.org/2000/svg" xmlns:xlink="http://www.w3.org/1999/xlink" x="0px" y="0px"
	 viewBox="0 0 512 512" style="enable-background:new 0 0 512 512;" xml:space="preserve">
<style type="text/css">
	.st0{fill:#5D5FEF;}
</style>
<path class="st0" d="M405.3,0H106.7C47.8,0.1,0.1,47.8,0,106.7v298.7C0.1,464.2,47.8,511.9,106.7,512h298.7
	c58.9-0.1,106.6-47.8,106.7-106.7V106.7C511.9,47.8,464.2,0.1,405.3,0z M426.7,234.7h42.7v42.7h-42.7V234.7z M426.7,192v-42.7h42.7
	V192H426.7z M384,234.7H128v-192h256V234.7z M85.3,277.3H42.7v-42.7h42.7L85.3,277.3L85.3,277.3z M85.3,192H42.7v-42.7h42.7
	L85.3,192L85.3,192z M42.7,320h42.7v42.7H42.7V320z M128,277.3h256v192H128V277.3z M426.7,320h42.7v42.7h-42.7V320z M469.3,106.7
	h-42.7V46.6C452.1,55.6,469.2,79.6,469.3,106.7z M85.3,46.6v60.1H42.7C42.8,79.6,59.9,55.6,85.3,46.6z M42.7,405.3h42.7v60.1
	C59.9,456.4,42.8,432.4,42.7,405.3z M426.7,465.4v-60.1h42.7C469.2,432.4,452.1,456.4,426.7,465.4z"/>
</svg>
