<?xml version="1.0" encoding="utf-8"?>
<!-- Generator: Adobe Illustrator 25.2.1, SVG Export Plug-In . SVG Version: 6.00 Build 0)  -->
<svg version="1.1" id="Layer_1" xmlns="http://www.w3.org/2000/svg" xmlns:xlink="http://www.w3.org/1999/xlink" x="0px" y="0px"
	 viewBox="0 0 50 50" style="enable-background:new 0 0 50 50;" xml:space="preserve">
<style type="text/css">
	.st0{fill:none;stroke:#5D5FEF;stroke-width:2;stroke-linecap:round;stroke-linejoin:round;}
	.st1{fill:none;stroke:#5D5FEF;stroke-width:2;}
</style>
<path class="st0" d="M30.5,13.7H19.3c-3.1,0-5.6,2.5-5.6,5.6v11.2c0,3.1,2.5,5.6,5.6,5.6h11.2c3.1,0,5.6-2.5,5.6-5.6V19.3
	C36.1,16.2,33.6,13.7,30.5,13.7z"/>
<path class="st0" d="M29.4,24.2c0.1,0.9,0,1.9-0.5,2.7c-0.4,0.8-1.1,1.5-2,1.9c-0.8,0.4-1.8,0.6-2.7,0.4c-0.9-0.1-1.8-0.6-2.5-1.3
	c-0.7-0.7-1.1-1.5-1.3-2.5c-0.1-0.9,0-1.9,0.4-2.7c0.4-0.8,1.1-1.5,1.9-2c0.8-0.4,1.8-0.6,2.7-0.5c1,0.1,1.8,0.6,2.5,1.3
	C28.8,22.4,29.3,23.3,29.4,24.2z"/>
<path class="st0" d="M31.1,18.8L31.1,18.8"/>
<circle class="st1" cx="25" cy="25" r="24"/>
</svg>
