<?xml version="1.0" encoding="utf-8"?>
<!-- Generator: Adobe Illustrator 25.2.1, SVG Export Plug-In . SVG Version: 6.00 Build 0)  -->
<svg version="1.1" id="Layer_1" xmlns="http://www.w3.org/2000/svg" xmlns:xlink="http://www.w3.org/1999/xlink" x="0px" y="0px"
	 viewBox="0 0 50 50" style="enable-background:new 0 0 50 50;" xml:space="preserve">
<style type="text/css">
	.st0{fill:none;stroke:#5D5FEF;stroke-width:2;}
	.st1{fill:none;stroke:#5D5FEF;stroke-width:2;stroke-linecap:round;stroke-linejoin:round;}
</style>
<circle class="st0" cx="25" cy="25" r="24"/>
<path class="st1" d="M37.1,15.2c-1.1,0.7-2.2,1.3-3.5,1.7c-0.7-0.8-1.5-1.3-2.5-1.5s-2-0.2-3,0.2c-0.9,0.4-1.8,1-2.3,1.8
	S25,19.1,25,20.1v1.1c-1.9,0.1-3.9-0.4-5.6-1.2c-1.7-0.9-3.2-2.1-4.3-3.7c0,0-4.4,9.9,5.5,14.3c-2.3,1.5-5,2.3-7.7,2.2
	c9.9,5.5,22,0,22-12.6c0-0.3,0-0.6-0.1-0.9C36,18.1,36.7,16.7,37.1,15.2L37.1,15.2z"/>
</svg>
